<svg width="24" height="24" viewBox="0 0 24 24" fill="none" xmlns="http://www.w3.org/2000/svg">
<path d="M12.875 0C14.8397 0.0595371 15.2313 0.12363 15.1816 0.148438L20.3916 1.5625C23.5471 2.27695 23.9891 3.5974 23.8154 4.16797V15.1074C23.8154 17.7264 22.6248 18.4319 22.0293 18.457L10.2705 23.3682C9.19896 23.9635 8.13726 23.6162 7.74023 23.3682C5.55787 22.4258 1.07432 20.4823 0.595703 20.2432C0.119404 20.005 0 19.1014 0 18.6797V5.65625C0 4.76319 0.843902 4.54004 1.26562 4.54004H3.7207C4.55358 4.59953 4.66359 4.3169 4.61426 4.16797L4.46484 1.19043C4.52447 0.238255 5.1349 9.20334e-05 5.43262 0H12.875ZM13.3955 3.34863C13.2218 3.32396 12.9048 3.37882 13.0234 3.79492V6.77246C12.9985 7.0951 12.8002 7.75494 12.2051 7.81445H8.78125C8.65707 7.81476 8.4092 7.91882 8.40918 8.33496V20.3916C8.38453 20.7389 8.63304 21.3286 9.82324 20.9121C11.014 20.4953 17.7624 17.8115 20.9873 16.5215C21.2603 16.521 21.791 16.1037 21.7314 14.4375V4.09277C21.7809 3.86945 21.7011 3.40829 20.9873 3.34863H13.3955Z" fill="url(#paint0_linear_586_9)"/>
<path d="M14.2891 14.0713V11.0928C14.2891 10.901 14.4679 10.7592 14.6547 10.803L18.3205 11.6621C18.583 11.7237 18.635 12.0747 18.4015 12.2097L14.7357 14.329C14.5373 14.4437 14.2891 14.3005 14.2891 14.0713Z" fill="url(#paint1_linear_586_9)"/>
<defs>
<linearGradient id="paint0_linear_586_9" x1="16.2243" y1="1.71168" x2="5.65655" y2="14.2891" gradientUnits="userSpaceOnUse">
<stop stop-color="#FFC300"/>
<stop offset="1" stop-color="#FF007B"/>
</linearGradient>
<linearGradient id="paint1_linear_586_9" x1="17.5295" y1="10.9968" x2="15.894" y2="13.3773" gradientUnits="userSpaceOnUse">
<stop stop-color="#FFC300"/>
<stop offset="1" stop-color="#FF007B"/>
</linearGradient>
</defs>
</svg>
